<?xml version="1.0" encoding="utf-8"?>
<!-- Generator: Adobe Illustrator 24.0.0, SVG Export Plug-In . SVG Version: 6.00 Build 0)  -->
<svg version="1.1" id="Capa_2" xmlns="http://www.w3.org/2000/svg" xmlns:xlink="http://www.w3.org/1999/xlink" x="0px" y="0px"
	 viewBox="0 0 114.67 34" style="enable-background:new 0 0 114.67 34;" xml:space="preserve">
<style type="text/css">
	.st0{fill:#FDFAF0;}
	.st1{fill:none;stroke:#FDFAF0;stroke-miterlimit:10;}
</style>
<g>
	<path class="st0" d="M19.41,6.03c3.37,0,6.51,1.52,8.6,4.16c1.55,1.95,2.37,4.31,2.37,6.81c0,2.5-0.81,4.84-2.34,6.77
		c-2.1,2.66-5.24,4.19-8.62,4.19c-3.4,0-6.55-1.54-8.65-4.23C9.24,21.81,8.44,19.48,8.44,17c0-2.5,0.82-4.85,2.37-6.81
		C12.9,7.55,16.03,6.03,19.41,6.03 M19.41,5.03c-3.8,0-7.19,1.77-9.38,4.54C8.4,11.62,7.44,14.19,7.44,17
		c0,2.77,0.94,5.33,2.53,7.36c2.19,2.81,5.6,4.61,9.43,4.61c3.82,0,7.22-1.79,9.41-4.58c1.61-2.03,2.56-4.6,2.56-7.39
		c0-2.81-0.96-5.38-2.58-7.43C26.6,6.81,23.21,5.03,19.41,5.03L19.41,5.03z"/>
</g>
<g>
	<path class="st0" d="M19.41,6.03c2.94,0,5.71,1.16,7.75,3.21c-0.83,0.36-1.7,0.65-2.61,0.89c-1.63,0.42-3.36,0.64-5.14,0.64
		c-1.76,0-3.5-0.22-5.16-0.65c-0.89-0.23-1.76-0.52-2.6-0.88C13.7,7.19,16.46,6.03,19.41,6.03 M19.41,5.03
		c-3.8,0-7.19,1.77-9.38,4.54c1.21,0.64,2.55,1.15,3.98,1.52c1.69,0.44,3.51,0.68,5.4,0.68c1.89,0,3.7-0.23,5.39-0.67
		c1.43-0.37,2.77-0.89,3.99-1.52C26.6,6.81,23.21,5.03,19.41,5.03L19.41,5.03z"/>
</g>
<g>
	<path class="st0" d="M19.35,23.16c1.8,0,3.55,0.22,5.21,0.66c0.92,0.24,1.81,0.55,2.63,0.9c-2.05,2.08-4.83,3.25-7.79,3.25
		c-2.98,0-5.76-1.18-7.81-3.27c0.84-0.36,1.72-0.66,2.64-0.9C15.85,23.38,17.58,23.16,19.35,23.16 M19.35,22.16
		c-1.89,0-3.7,0.23-5.38,0.67c-1.44,0.37-2.78,0.89-4.01,1.53c2.19,2.81,5.6,4.61,9.43,4.61c3.82,0,7.22-1.79,9.41-4.58
		c-1.21-0.65-2.56-1.16-4-1.54C23.11,22.4,21.27,22.16,19.35,22.16L19.35,22.16z"/>
</g>
<g>
	<path class="st0" d="M19.41,6.03c2.52,0,5.21,4.41,5.21,10.97s-2.69,10.97-5.21,10.97S14.2,23.56,14.2,17S16.89,6.03,19.41,6.03
		 M19.41,5.03c-3.43,0-6.21,5.36-6.21,11.97s2.78,11.97,6.21,11.97s6.21-5.36,6.21-11.97S22.83,5.03,19.41,5.03L19.41,5.03z"/>
</g>
<line class="st1" x1="19.39" y1="5.22" x2="19.41" y2="28.71"/>
<line class="st1" x1="8" y1="17" x2="30.72" y2="17"/>
<g>
	<path class="st0" d="M47.38,22.87l-2.35-3.39h-0.14h-2.45v3.39h-2.82V10.7h5.27c3.25,0,5.28,1.69,5.28,4.41
		c0,1.83-0.92,3.16-2.5,3.84l2.73,3.91H47.38z M44.74,13h-2.29v4.24h2.29c1.72,0,2.59-0.8,2.59-2.12C47.33,13.78,46.46,13,44.74,13z
		"/>
	<path class="st0" d="M51.51,18.2c0-2.82,2.17-4.81,5.14-4.81c2.97,0,5.13,2,5.13,4.81s-2.16,4.81-5.13,4.81
		C53.68,23.01,51.51,21.01,51.51,18.2z M59.04,18.2c0-1.62-1.03-2.59-2.38-2.59c-1.36,0-2.4,0.97-2.4,2.59s1.04,2.59,2.4,2.59
		C58.01,20.78,59.04,19.81,59.04,18.2z"/>
	<path class="st0" d="M73.15,17.52v5.35h-2.71v-4.94c0-1.51-0.7-2.21-1.89-2.21c-1.3,0-2.24,0.8-2.24,2.52v4.62h-2.71v-9.35h2.59
		v1.09c0.73-0.8,1.83-1.23,3.09-1.23C71.48,13.38,73.15,14.67,73.15,17.52z"/>
	<path class="st0" d="M83.87,17.54v5.33h-2.54v-1.16c-0.5,0.85-1.48,1.3-2.85,1.3c-2.19,0-3.49-1.22-3.49-2.83
		c0-1.65,1.17-2.8,4.02-2.8h2.15c0-1.16-0.69-1.84-2.15-1.84c-0.99,0-2.02,0.33-2.69,0.87l-0.97-1.89c1.03-0.73,2.54-1.13,4.03-1.13
		C82.21,13.38,83.87,14.7,83.87,17.54z M81.15,19.92v-0.96h-1.86c-1.27,0-1.67,0.47-1.67,1.09c0,0.68,0.57,1.13,1.53,1.13
		C80.06,21.18,80.84,20.77,81.15,19.92z"/>
	<path class="st0" d="M86.31,9.97h2.71v12.9h-2.71V9.97z"/>
	<path class="st0" d="M101.07,9.97v12.9h-2.59v-1.08c-0.68,0.82-1.67,1.22-2.92,1.22c-2.64,0-4.67-1.88-4.67-4.81
		c0-2.94,2.03-4.81,4.67-4.81c1.15,0,2.12,0.36,2.8,1.13V9.97H101.07z M98.41,18.2c0-1.62-1.04-2.59-2.38-2.59
		c-1.36,0-2.4,0.97-2.4,2.59s1.04,2.59,2.4,2.59C97.37,20.78,98.41,19.81,98.41,18.2z"/>
	<path class="st0" d="M102.87,18.2c0-2.82,2.17-4.81,5.14-4.81c2.97,0,5.13,2,5.13,4.81s-2.15,4.81-5.13,4.81
		C105.04,23.01,102.87,21.01,102.87,18.2z M110.4,18.2c0-1.62-1.03-2.59-2.38-2.59c-1.36,0-2.4,0.97-2.4,2.59s1.04,2.59,2.4,2.59
		C109.37,20.78,110.4,19.81,110.4,18.2z"/>
</g>
<g>
</g>
<g>
</g>
<g>
</g>
<g>
</g>
<g>
</g>
<g>
</g>
</svg>
